<?xml version="1.0" encoding="UTF-8" standalone="no"?>
<!-- Generator: Adobe Illustrator 15.1.0, SVG Export Plug-In . SVG Version: 6.00 Build 0)  -->

<svg
   xmlns:dc="http://purl.org/dc/elements/1.1/"
   xmlns:cc="http://creativecommons.org/ns#"
   xmlns:rdf="http://www.w3.org/1999/02/22-rdf-syntax-ns#"
   xmlns:svg="http://www.w3.org/2000/svg"
   xmlns="http://www.w3.org/2000/svg"
   xmlns:sodipodi="http://sodipodi.sourceforge.net/DTD/sodipodi-0.dtd"
   xmlns:inkscape="http://www.inkscape.org/namespaces/inkscape"
   version="1.1"
   id="Layer_1"
   x="0px"
   y="0px"
   width="100"
   height="100"
   viewBox="0 0 100 100"
   enable-background="new 0 0 3257.348 1595.681"
   xml:space="preserve"
   inkscape:version="0.48.4 r9939"
   sodipodi:docname="example.svg"><metadata
   id="metadata11"><rdf:RDF><cc:Work
       rdf:about=""><dc:format>image/svg+xml</dc:format><dc:type
         rdf:resource="http://purl.org/dc/dcmitype/StillImage" /></cc:Work></rdf:RDF></metadata><defs
   id="defs9" /><sodipodi:namedview
   pagecolor="#ffffff"
   bordercolor="#666666"
   borderopacity="1"
   objecttolerance="10"
   gridtolerance="10"
   guidetolerance="10"
   inkscape:pageopacity="0"
   inkscape:pageshadow="2"
   inkscape:window-width="1920"
   inkscape:window-height="1018"
   id="namedview7"
   showgrid="false"
   inkscape:zoom="5.6192954"
   inkscape:cx="101.17709"
   inkscape:cy="35.081895"
   inkscape:window-x="-8"
   inkscape:window-y="-8"
   inkscape:window-maximized="1"
   inkscape:current-layer="g3"
   fit-margin-top="0"
   fit-margin-left="0"
   fit-margin-right="0"
   fit-margin-bottom="0" />
<g
   id="g3"
   style="fill:#cccccc"
   transform="matrix(0.92931337,0.36929212,-0.36929212,0.92931337,180.47858,-1365.523)"
   inkscape:transform-center-x="-1584.6491"
   inkscape:transform-center-y="-404.04613">
	<path
   clip-rule="evenodd"
   d="m 452.672,1357.4942 c 0,0.01 0,0.021 0,0.032 -9.18272,2.6825 -18.32534,5.4065 -27.48682,8.1104 -0.0995,0.199 -0.33291,0.3407 -0.31559,0.568 0.0381,0.499 0.31593,1.0405 0.47337,1.5779 0.46765,1.5962 0.95727,3.3824 1.38855,4.8284 0.39016,-0.1148 0.78475,-0.2251 1.16763,-0.3471 0.0864,0.4395 0.25672,0.7952 0.31559,1.2623 -22.85988,6.7537 -45.69138,13.5312 -68.54352,20.2917 -0.11715,-0.4194 -0.24312,-0.8299 -0.34715,-1.2624 0.32003,-0.1323 0.73907,-0.1656 1.00985,-0.3471 -0.0575,-0.8646 -0.4721,-1.4566 -0.4418,-2.2722 0.0735,-1.9777 1.54545,-2.462 3.18732,-2.9348 1.5635,-0.4504 2.98852,-0.8315 4.48119,-1.3255 0.73171,-0.2422 1.6018,-0.487 1.98814,-0.9153 0.13632,-0.151 0.3627,-0.6727 0.37868,-0.9149 0.0357,-0.541 -0.41122,-1.1078 -0.4418,-1.7358 -0.36327,0.068 -0.67529,0.1873 -1.00984,0.284 -0.13806,-0.5352 -0.331,-1.0155 -0.44181,-1.5779 0.36782,-0.085 0.72491,-0.1798 1.04138,-0.3156 -0.316,-0.9346 -0.69609,-2.3627 -1.00982,-3.4397 -0.1138,-0.3908 -0.25829,-1.0124 -0.47335,-1.1677 -0.49683,-0.3583 -1.23366,-0.067 -1.83037,-0.2839 0,-0.3893 0,-0.7786 0,-1.1676 0.40071,-0.062 0.89497,-0.031 1.16765,-0.221 -0.0599,-0.5889 -0.269,-1.1316 -0.47335,-1.7041 -0.1273,-0.3566 -0.39952,-1.3259 -0.66273,-1.5463 -0.36982,-0.3099 -1.22587,-0.365 -1.70412,-0.4419 -0.55126,-0.088 -1.19079,-0.2715 -1.67255,0 -0.198,1.2976 -0.29558,3.2945 -0.47337,4.7336 -1.68539,-0.1712 -4.03971,-0.382 -6.09069,-0.631 0.45118,-4.6258 0.87035,-9.1737 1.35701,-13.8855 0.99325,0.222 2.01149,0.123 2.90329,0.3787 0.51026,0.1463 0.98505,0.4751 1.45166,0.6944 0.50675,0.2378 1.01501,0.394 1.45167,0.6941 -0.13119,1.5229 -0.24756,2.9325 -0.34717,4.5127 0.30842,0.054 0.51824,0.089 0.9152,0.095 0.1429,-1.6018 0.25331,-2.8439 0.47336,-4.6075 0.38828,-0.1507 0.74438,-0.3021 1.13606,-0.4734 0.32882,-0.1437 0.77197,-0.4587 1.1361,-0.4733 0.22629,-0.01 0.52014,0.1454 0.78892,0.2209 0.84395,0.2375 1.6628,0.4184 2.42996,0.6943 0.23027,1.8404 0.44412,3.9714 0.69426,5.712 0.40838,-0.1234 0.99893,-0.062 1.10454,-0.4418 0.0993,-0.3567 -0.20013,-0.795 -0.12624,-1.1993 -0.097,-0.1119 -0.15768,-0.1 -0.2209,-0.2524 -0.0834,-0.2019 -0.0639,-0.5385 -0.0946,-0.8206 -0.0855,-0.7843 -0.17614,-1.5619 -0.2525,-2.1144 0.0269,-0.1833 0.30404,-0.1166 0.34716,-0.2839 -0.0502,-0.1918 -0.0719,-0.4119 -0.0946,-0.6312 1.02267,-0.3573 1.72986,-1.0829 2.99795,-1.1045 0.80931,0.3163 1.70148,0.5497 2.49306,0.8837 0.083,0.2923 -0.0153,0.5622 0.0946,0.8836 0.0665,0.1942 0.26126,0.2682 0.31561,0.4417 0.11817,0.3777 0.0736,0.8702 0.12622,1.3255 0.0534,0.4626 0.21282,0.9695 0.15777,1.357 -0.0218,0.1537 -0.21202,0.1999 -0.25245,0.4417 -0.0327,0.1962 0.0294,0.5976 0.12621,0.7258 0.16643,0.2206 0.76357,0.2341 1.04142,0.032 0.32912,-0.2398 0.0835,-0.7825 0.1578,-1.294 0.0328,-0.1906 -0.25625,-0.06 -0.28402,-0.1894 -0.0415,-0.4123 -0.0814,-0.8411 -0.12622,-1.2938 -0.0414,-0.418 -0.17327,-0.9279 -0.12625,-1.3254 0.0213,-0.1797 0.14916,-0.3287 0.15782,-0.5048 0.0141,-0.2892 -0.12656,-0.6032 -0.0947,-0.8837 0.37441,-0.1704 0.74704,-0.3881 1.16763,-0.5997 0.26962,-0.1355 0.92759,-0.5492 1.19918,-0.5679 0.28437,-0.019 0.69953,0.1474 1.04141,0.2208 0.33519,0.072 0.66773,0.1779 1.00986,0.2525 0.45309,1.3036 0.89543,2.618 1.35695,3.9132 0.25888,-0.078 0.53372,-0.1396 0.78896,-0.2209 -0.40473,-1.4783 -0.79864,-2.9673 -1.1992,-4.4496 0.33955,-0.4673 0.77892,-0.842 1.23076,-1.294 0.31909,-0.319 0.87167,-1.0846 1.26231,-1.2622 0.31161,-0.1417 0.71247,-0.1914 1.04141,-0.2841 1.03254,-0.291 1.91324,-0.7213 2.9033,-1.0729 0.72591,2.4323 1.50105,5.1635 2.2406,7.6686 0.21973,0.7441 0.51872,1.3032 0.0631,1.9565 -0.9609,0.2383 -1.88594,0.5123 -2.14592,1.4517 0.42473,0.286 0.95362,-0.019 1.38856,-0.1578 1.42874,-0.4544 3.04928,-0.9303 4.38651,-1.357 0.19395,-0.2258 1.08469,-0.7364 0.8836,-1.1992 -0.17106,-0.3938 -1.08581,-0.1377 -1.45164,-0.094 -0.6249,0.073 -1.154,0.053 -1.5779,0.1261 -1.11817,-3.4932 -2.26093,-7.3434 -3.40822,-10.9504 -0.21951,-0.6903 -0.68751,-1.6213 -0.22091,-2.1776 2.29546,-0.6079 4.52841,-1.2782 6.84809,-1.8618 1.28493,4.3851 2.65623,8.6833 3.9447,13.0648 -0.4905,0.1638 -1.05003,0.3855 -1.54633,0.5997 -0.47958,0.2069 -1.03987,0.4704 -1.10454,1.0099 0.48707,0.3156 1.30289,0.2551 1.86189,0.1576 0.82881,-0.1444 1.67918,-0.4699 2.52462,-0.7258 5.80743,-1.7571 11.79642,-3.4778 17.57771,-5.1754 0.39929,-0.948 0.0481,-1.863 -0.22091,-2.714 0.259,-0.4036 0.44966,-0.8757 0.75739,-1.2308 1.04887,-0.1818 2.02151,-0.4398 3.06108,-0.631 0.24565,-0.5855 0.42457,-1.2375 0.6943,-1.7988 0.92453,-0.2116 1.79163,-0.4807 2.71396,-0.6942 0.0202,0.3847 0.0703,0.6689 0.0946,1.0413 0.65545,0.4175 1.37313,0.7727 2.01969,1.1992 0.25762,0.3343 0.0859,1.3656 0.50493,1.5778 0.3665,0.1857 1.33278,-0.1836 1.83036,-0.3155 1.81177,-0.4803 3.74468,-1.0016 5.45948,-1.4517 2.3107,-0.6064 4.46776,-1.2621 6.65871,-1.925 0.10542,-0.032 0.30656,-0.072 0.34715,-0.1893 -0.0161,-0.7162 -0.31041,-1.3825 -0.50493,-2.0513 -0.20016,-0.6883 -0.36936,-1.3812 -0.59958,-2.0513 0.75967,-0.208 1.45929,-0.4762 2.24057,-0.6627 0.29097,1.0451 0.67123,2.0008 0.82051,3.1874 -0.37829,0.2269 -0.93312,0.833 -0.37868,1.2623 0.70181,-0.116 1.55278,-0.6774 2.33526,-0.6311 0.63133,0.037 1.39827,0.4039 1.73567,0.8203 0.91075,1.1245 1.28374,3.054 1.86189,4.4182 0.32837,-0.092 0.648,-0.1936 0.97829,-0.284 0.16222,0.5743 0.31583,1.1569 0.50511,1.704 z m -4.6705,-5.2386 c -0.68375,-0.2918 -1.52905,0.2327 -2.17751,0.3156 -0.0952,0.1151 -0.18423,0.2366 -0.2209,0.4103 0.40323,0.4595 1.01897,0.1194 1.5779,0.063 0.58099,-0.058 1.15492,0 1.64098,0.221 -0.22093,-0.414 -0.40338,-0.8318 -0.82047,-1.0099 z m -14.61129,4.071 c -3.07628,0.8774 -6.18934,1.7704 -9.24644,2.6509 -0.38762,0.1115 -0.93403,0.1805 -0.94673,0.7573 0.6581,0.4326 1.27715,0.097 2.01969,-0.1262 5.74456,-1.7187 11.43615,-3.3795 17.16745,-5.0493 0.43731,-0.1273 0.94346,-0.2167 1.23074,-0.3786 0.26389,-0.1486 0.62893,-0.5236 0.47336,-0.9468 -0.021,0 -0.0421,0 -0.0631,0 -3.40173,1.0354 -7.0522,2.0708 -10.63499,3.0927 z m 15.52646,0.4418 c 0.42614,-0.457 0.63539,-1.4966 0.18933,-2.0514 -0.32344,-0.1213 -0.5765,-0.4213 -0.97829,-0.4732 -0.62375,-0.081 -1.90285,0.418 -1.98813,0.6943 -0.0432,0.14 0.0766,0.4113 0.12622,0.5995 0.17596,0.6677 0.30751,1.3338 0.5996,1.7989 0.73003,-0.1432 1.3386,-0.4076 2.05127,-0.5681 z m -4.16561,1.2307 c 0.58761,-0.464 0.56687,-1.9904 -0.0316,-2.3984 -0.59616,-0.4065 -1.54535,0.026 -2.20903,0.2209 -0.41683,0.1225 -0.85343,0.249 -1.29387,0.3788 -0.90006,0.2652 -1.85318,0.4696 -2.58773,0.7573 -0.90375,0.354 -1.71606,1.1416 -2.3984,1.7987 -0.83209,0.8017 -1.744,1.8147 -2.46149,2.5248 3.63449,-1.1202 7.31846,-2.1909 10.98209,-3.2821 z m -20.73348,3.3452 c -0.058,0.4457 0.0651,0.9002 0.18934,1.42 0.0928,0.3883 0.16968,1.0156 0.56806,1.1045 0.34438,0.076 1.0093,-0.2225 1.42008,-0.347 1.0022,-0.3039 1.89382,-0.5653 2.84018,-0.8521 0.48456,-0.1469 1.00632,-0.2271 1.45165,-0.4104 0.46058,-0.1894 0.94931,-0.5857 1.38856,-0.915 1.33818,-1.0033 2.46838,-2.3096 3.53443,-3.4083 0.0485,-0.012 0.005,-0.038 -0.0315,0 -3.78203,1.1411 -7.65249,2.1934 -11.36077,3.4083 z m -2.74556,-1.5464 c -0.71367,0.2874 -2.19893,0.2392 -2.30371,1.1361 0.66753,0.4628 1.70345,-0.016 2.3984,-0.1893 0.3191,-0.2031 0.5553,-0.9378 -0.0947,-0.9468 z m -13.60139,4.9862 c 2.9276,-0.8627 5.79887,-1.7381 8.70996,-2.5877 0.24641,-0.072 0.55237,-0.103 0.69426,-0.1894 0.12707,-0.078 0.48041,-0.4647 0.41025,-0.7574 -0.0459,-0.1918 -0.32712,-0.2559 -0.4418,-0.221 -3.29088,1.0055 -7.0477,2.1136 -10.35096,3.1243 -0.43593,0.1334 -1.1366,0.156 -1.16763,0.7889 0.66699,0.4301 1.35224,0.076 2.14592,-0.1577 z m 14.54813,-2.9349 c -0.73173,0.1519 -1.5679,0.4728 -2.36683,0.6627 -0.60272,0.3257 -0.1435,1.0515 0.0316,1.5464 0.0872,0.2464 0.18065,0.8341 0.41023,1.0098 0.29185,0.2232 0.86568,-0.05 1.23076,-0.1579 0.70378,-0.2073 1.39209,-0.337 1.57785,-0.9783 -0.28774,-0.5026 -0.47551,-1.7115 -0.8836,-2.0827 z m -4.44965,1.2938 c -0.90411,0.1991 -1.77048,0.5227 -2.65083,0.7889 -2.20664,0.6677 -4.4776,1.3362 -6.69027,1.9882 -0.46462,0.1369 -0.96673,0.1909 -1.35696,0.3787 -0.27285,0.1312 -0.86381,0.6578 -0.88363,0.9467 -0.0139,0.2031 0.20076,0.6194 0.31558,0.9468 0.11915,0.3397 0.21986,0.7268 0.4418,0.852 0.34819,0.1965 1.07181,-0.1014 1.5779,-0.2524 2.80704,-0.8398 5.70434,-1.7198 8.39437,-2.5246 0.68714,-0.2056 1.85243,-0.3409 1.89346,-1.0415 0.0178,-0.3048 -0.21673,-0.6491 -0.37871,-1.1044 -0.17005,-0.4781 -0.24656,-0.9788 -0.59958,-0.9784 -0.0193,10e-5 -0.0442,0 -0.0632,0 z m -14.16941,1.9251 c -1.36047,0.4015 -3.53333,1.0697 -4.89146,1.4832 -0.0527,0.1471 -0.20344,0.1962 -0.18934,0.4102 0.61469,0.4598 1.30312,0.1313 1.9566,-0.063 1.0707,-0.3186 2.20345,-0.6753 3.21886,-0.9468 0.36145,-0.1741 0.51218,-1.0626 -0.0946,-0.8835 z m 18.49285,1.4832 c -0.35164,0.1053 -0.86025,0.1782 -0.97829,0.3787 -0.14683,0.2492 7.7e-4,0.819 0.0946,1.2308 0.0965,0.4226 0.22291,0.9166 0.2209,1.2307 -0.006,1.0316 -0.62656,1.7438 -1.26232,2.3353 -1.09447,1.0182 -1.95717,2.1385 -3.02951,3.1242 -0.19477,0.1789 -0.50575,0.3769 -0.50492,0.6941 2.81009,-0.6927 5.61422,-1.665 8.45746,-2.4298 0.46819,-0.5091 0.11142,-1.4246 -0.0946,-2.1776 -0.3189,-1.1647 -0.65803,-2.2188 -1.00985,-3.2818 -0.17923,-0.5416 -0.2707,-1.1528 -0.72582,-1.4202 -0.002,-0.019 -0.005,-0.038 -0.0315,-0.032 -0.30154,0.1008 -0.66349,0.2057 -1.13609,0.3472 z m -25.40405,0.5996 c -1.63145,0.4985 -4.05277,1.2217 -5.71194,1.7041 -0.19442,0.2369 -0.49703,0.3656 -0.53648,0.7574 0.19482,0.2359 0.49911,0.099 0.72581,0.032 1.82014,-0.5363 3.74259,-1.1351 5.55417,-1.6409 0.24764,-0.1326 0.57859,-1.0385 -0.0315,-0.8522 z m 8.04728,0.2839 c -0.13128,-0.1177 -0.69264,-0.2362 -0.85209,-0.1893 -2.33802,0.6901 -5.1871,1.5529 -7.60543,2.2722 -0.88638,0.2638 -1.76455,0.4372 -2.52462,0.789 0.71579,0.4394 1.72226,0.4679 2.65087,0.631 0.9192,0.1615 1.87695,0.431 2.77706,0.4419 1.13713,0.014 2.11338,-0.4743 3.18736,-0.7889 1.11535,-0.3268 2.62356,-0.4615 3.0295,-1.4517 -0.30561,-0.4083 -0.28314,-1.3631 -0.66265,-1.7042 z m 5.33322,10.0986 c 0.77295,-0.2256 1.59586,-0.373 2.30373,-0.6626 0.3828,-0.1568 0.76502,-0.4162 1.13606,-0.5997 0.39998,-0.1978 0.8272,-0.3841 1.16766,-0.5995 0.53582,-0.3394 0.99909,-0.8949 1.48321,-1.3887 0.47475,-0.4843 0.91112,-1.0002 1.35697,-1.5147 0.64805,-0.7478 1.33579,-1.5113 1.98813,-2.3037 0.22292,-0.2708 0.55931,-0.599 0.59961,-0.8521 0.0694,-0.4357 -0.16191,-0.8989 -0.31558,-1.2938 -0.18066,-0.4643 -0.38083,-0.9839 -0.91517,-0.8205 -3.57635,1.0928 -7.38718,2.1682 -11.04525,3.2504 -0.0816,0.1708 -0.22727,0.2777 -0.31555,0.4418 -0.0459,1.1757 0.53583,2.2137 0.12621,3.1873 -0.18706,0.4448 -0.77796,0.8713 -1.13606,1.2624 -0.79383,0.867 -1.53207,1.6768 -2.30373,2.4931 -0.38741,0.4096 -0.99617,0.7548 -0.97829,1.3884 2.25779,-0.5702 4.59793,-1.3313 6.84805,-1.9881 z m -26.03514,-7.921 c 0.91514,-0.2768 1.80322,-0.5476 2.71397,-0.8205 0.37914,-0.1136 1.14729,-0.2464 1.32543,-0.4418 0.47904,-0.5257 -0.53803,-0.8486 -0.97828,-0.6942 -1.46034,0.5116 -3.38314,1.0573 -4.95458,1.5463 -0.10717,0.1978 -0.32524,0.2848 -0.34714,0.568 0.63948,0.5003 1.46741,0.075 2.2406,-0.1578 z m -7.57386,4.355 c 3.9633,-1.1635 7.91858,-2.3398 11.86569,-3.503 0.34175,-0.1007 0.67744,-0.148 0.66273,-0.4417 -0.015,-0.3008 -0.4856,-0.411 -0.69429,-0.3471 -3.31373,1.0126 -7.21777,2.1516 -10.6665,3.1872 -0.92177,0.2768 -1.8523,0.3598 -1.95659,1.1992 0.24695,0.1445 0.54631,-0.023 0.78896,-0.094 z m 3.40822,-4.0394 c -1.3313,0.4664 -3.62001,1.0311 -4.79678,1.641 -0.0631,0.2244 -0.034,0.535 0.0947,0.6628 1.65632,-0.4056 3.16472,-0.959 4.79674,-1.3887 0.36684,-0.1562 0.55992,-1.1446 -0.0946,-0.9151 z m 11.10834,1.1676 c -2.20365,0.599 -4.72852,1.3811 -7.22675,2.1143 -1.74467,0.5122 -3.5702,1.0604 -5.33327,1.5779 -0.73729,0.2165 -1.91041,0.3451 -2.11435,1.0099 0.2356,0.7006 0.52414,1.6218 0.85203,2.3353 5.97946,-1.8232 12.09584,-3.5945 18.05104,-5.3963 0.39045,-0.1183 0.82468,-0.1709 1.16765,-0.4103 -1.78901,-0.4257 -3.59856,-0.8307 -5.39635,-1.2308 z m 13.34897,0.6942 c -10.4226,3.0596 -20.73196,6.0989 -31.14754,9.215 -0.42953,0.1284 -1.91365,0.4088 -2.08283,0.7258 -0.26077,0.4885 -0.1121,0.9904 0.0947,1.6726 0.1787,0.5894 0.3111,1.0956 0.47337,1.6411 0.26413,0.8877 0.60831,2.4877 1.29386,2.9032 0.82979,0.5028 1.64778,0.1 2.61928,-0.1894 7.29339,-2.1696 14.34759,-4.3057 21.68019,-6.4378 1.13729,-0.3306 2.38354,-0.6255 3.1558,-1.1677 0.26543,-0.1862 0.51394,-0.4925 0.78892,-0.7573 1.34949,-1.2998 2.62217,-2.4645 3.94471,-3.787 0.44534,-0.4452 1.28856,-1.1809 1.38856,-1.704 0.0834,-0.4365 -0.063,-0.8519 -0.12626,-1.2308 -0.0694,-0.416 -0.0969,-0.8431 -0.34712,-1.1361 -0.69388,-0.1628 -1.11945,0.072 -1.73563,0.2524 z m -31.58935,1.1993 c 0.35068,-0.1063 0.73391,-0.1476 1.00986,-0.3787 0.17592,-0.7436 -0.70859,-0.682 -1.19923,-0.6628 -1.06436,0.042 -2.72087,0.2093 -3.56599,0.5996 -0.0668,0.5529 0.24749,0.9636 0.53648,1.2623 1.11382,-0.1138 2.21355,-0.5157 3.21888,-0.8204 z m -2.01972,2.6508 c 0.80374,-0.2391 1.57228,-0.4633 2.36681,-0.6943 0.34084,-0.1 1.06165,-0.2042 1.10452,-0.4417 0.0645,-0.3569 -0.47822,-0.4571 -0.63116,-0.4103 -1.05236,0.3215 -2.45156,0.6945 -3.62912,1.0099 -0.398,0.1066 -0.89074,0.2357 -0.88361,0.6942 0.4432,0.4682 1.07718,0.018 1.67256,-0.1578 z m 1.89347,0.8521 c -0.63316,0.1895 -1.42807,0.2813 -2.01969,0.505 -0.87798,0.332 -1.03147,1.3761 -0.50493,2.209 0.1371,0.2167 0.51313,0.6989 0.88364,0.7258 0.34231,0.024 0.81606,-0.2331 1.19918,-0.3472 0.86723,-0.258 1.60647,-0.4541 2.39838,-0.6942 0.39114,-0.1186 0.80868,-0.1856 1.1361,-0.4103 -0.0253,-0.4265 -0.25495,-0.8818 -0.41025,-1.3254 -0.15531,-0.4435 -0.22553,-0.9929 -0.59961,-1.2307 -0.002,-0.018 -0.005,-0.038 -0.0315,-0.032 -0.57913,0.1977 -1.28033,0.3689 -2.05127,0.5996 z m -1.60941,10.8559 c -0.14952,-0.4183 -0.21902,-0.9708 -0.41028,-1.1676 -0.15453,-0.1593 -0.52348,-0.1987 -0.7258,-0.1264 -1.03248,0.37 -2.14477,0.7017 -3.34513,1.1046 -0.96824,0.3251 -2.56806,0.6444 -3.02951,1.4201 -0.5334,0.8966 0.0597,1.8642 0.75735,2.1775 0.7269,0.3264 1.45686,-0.1087 2.14595,-0.3155 1.55397,-0.4668 3.14144,-0.8735 4.60742,-1.3571 0.48433,-0.3943 0.22364,-1.11 0,-1.7356 z m -9.81448,1.8303 c -0.15567,0.3717 -0.14262,1.0642 0,1.3885 0.22627,0.5146 0.83275,0.8578 1.32544,0.9468 0.16087,-0.7304 -0.3925,-1.3178 -0.44183,-2.0197 -0.021,-0.2976 -0.0106,-0.6163 0.0631,-0.8837 -0.002,-0.018 -0.005,-0.037 -0.0316,-0.032 -0.33177,0.1981 -0.77736,0.2704 -0.91516,0.5995 z"
   id="path5"
   style="fill:#cccccc;fill-rule:evenodd"
   inkscape:connector-curvature="0" />
</g>
</svg>